<svg width="37" height="29" viewBox="0 0 37 29" fill="none" xmlns="http://www.w3.org/2000/svg">
<path d="M31.59 0H5.50192C4.03159 0 2.65578 0.626347 1.65995 1.5897L1.61263 1.63775C0.616373 2.64954 0 4.04638 0 5.58807V23.4119C0 24.9536 0.616729 26.3505 1.61263 27.3623L1.65995 27.4103C2.65621 28.3737 3.98424 29 5.45466 29H31.5427C34.5784 29 36.9973 26.4949 36.9973 23.4603V5.63647C37.0923 2.50508 34.6257 1.57512e-05 31.59 1.57512e-05V0ZM23.6687 14.4518L34.1514 4.72091C34.2463 4.96185 34.2936 5.25083 34.2936 5.53981V23.3637C34.2936 23.6526 34.2463 23.9416 34.1514 24.1826L23.6687 14.4518ZM31.59 2.79401C31.7323 2.79401 31.9222 2.79401 32.0645 2.84206L20.728 13.3919L18.5936 15.367L17.5974 14.4037L5.12251 2.79406C5.26478 2.74601 5.40706 2.74601 5.59697 2.74601H31.5902L31.59 2.79401ZM2.94055 24.1826C2.84559 23.9417 2.79828 23.6527 2.79828 23.3637V5.53989C2.79828 5.25091 2.84559 4.96192 2.94055 4.721L13.4232 14.4519L2.94055 24.1826ZM5.50175 26.1094C5.35948 26.1094 5.21721 26.1094 5.02729 26.0613L15.4625 16.3786L17.5969 18.3538C17.6442 18.4018 17.7392 18.4502 17.7865 18.4983C18.0237 18.6428 18.261 18.6908 18.4979 18.6908C18.83 18.6908 19.1619 18.5463 19.4464 18.3054L21.5808 16.3302L32.0161 26.0129C31.8738 26.061 31.7315 26.061 31.5416 26.061L5.5018 26.0613L5.50175 26.1094Z" fill="white"/>
</svg>
