<svg width="77" height="34" viewBox="0 0 77 34" fill="none" xmlns="http://www.w3.org/2000/svg">
<path d="M38.6532 30.5378C39.1876 30.5378 39.6739 30.5378 40.1609 30.5378C40.565 30.5378 40.9698 30.5315 41.3739 30.5434C41.4631 30.5462 41.5808 30.5908 41.6345 30.6576C42.2065 31.3662 42.9297 31.7369 43.8375 31.532C44.7154 31.3335 45.2226 30.7071 45.4679 29.8641C45.6121 29.3694 45.6685 28.8622 45.6198 28.3954C45.2428 28.6978 44.8959 29.0698 44.4723 29.3004C42.9687 30.1191 40.9378 29.6439 39.7464 28.2609C38.9953 27.3893 38.5849 26.3818 38.4769 25.2462C38.3501 23.9029 38.4184 22.5826 38.9312 21.3097C39.5213 19.8444 40.5901 18.9972 42.1494 18.775C43.1143 18.6377 44.0828 18.6084 45.0324 18.8697C47.0501 19.4257 48.229 20.8735 48.3098 23.0501C48.3816 24.994 48.3447 26.942 48.337 28.8887C48.3356 29.3276 48.2987 29.7742 48.2095 30.2034C47.8228 32.0685 46.5151 33.6717 44.3852 33.9385C42.8705 34.128 41.438 33.8946 40.193 32.9541C39.4077 32.3611 38.9855 31.5111 38.6525 30.5385L38.6532 30.5378ZM41.1398 24.4331C41.1168 24.4373 41.0938 24.4414 41.0708 24.4456C41.1788 25.0044 41.2429 25.5771 41.4053 26.1199C41.6157 26.8222 42.1062 27.2576 42.8607 27.3579C43.6996 27.4687 44.4562 27.3482 45.0122 26.6285C45.3954 26.1324 45.5208 25.5458 45.5884 24.9445C45.7145 23.8248 45.5773 22.7672 44.9439 21.7869C44.2479 20.7091 42.1124 20.8247 41.5948 22.0475C41.2694 22.8167 41.1175 23.6047 41.1398 24.4331Z" fill="white"/>
<path d="M7.6194 4.82852C7.63194 4.81667 7.69952 4.75397 7.76501 4.68917C9.03654 3.43437 10.5519 3.20096 12.1969 3.70679C13.798 4.19937 14.641 5.38033 14.935 6.9828C15.0075 7.37784 15.0319 7.78613 15.034 8.18883C15.0437 10.1257 15.034 12.0626 15.0437 13.9995C15.0451 14.2476 14.9789 14.3228 14.7281 14.3152C14.0983 14.297 13.4677 14.2977 12.8386 14.3152C12.585 14.3221 12.5021 14.2594 12.5041 13.9898C12.5167 12.025 12.5125 10.0595 12.5083 8.09408C12.5083 7.87879 12.4965 7.65932 12.4505 7.4503C12.2387 6.47279 11.4827 5.94885 10.4732 6.06242C9.45318 6.17808 8.78711 6.92079 8.78293 7.97773C8.77596 9.94319 8.78223 11.908 8.78014 13.8734C8.78014 14.3611 8.82891 14.3061 8.33911 14.3096C7.73714 14.3131 7.13517 14.3012 6.53389 14.3145C6.30606 14.3193 6.24893 14.2399 6.24963 14.0211C6.25729 12.0376 6.2552 10.0533 6.25172 8.069C6.25172 7.86346 6.24127 7.65305 6.20086 7.45239C6.00647 6.49718 5.33274 6.0032 4.31621 6.05685C3.36936 6.10632 2.63501 6.79259 2.56534 7.72969C2.52911 8.21601 2.54652 8.7065 2.54583 9.1956C2.54374 10.7939 2.54025 12.3922 2.55001 13.9912C2.5514 14.2288 2.50263 14.3235 2.24205 14.3166C1.58434 14.2984 0.925937 14.3054 0.267529 14.3138C0.0884705 14.3159 0.0222816 14.2671 0.0229783 14.0762C0.0292489 11.97 -0.0439076 9.86098 0.0424866 7.75826C0.202734 3.87261 3.88424 2.76063 6.20992 3.86634C6.70738 4.10253 7.13238 4.492 7.6173 4.82922L7.6194 4.82852Z" fill="white"/>
<path d="M20.0815 28.3372C20.0815 28.4362 20.0815 28.5344 20.0815 28.6334C20.0815 29.6199 20.0836 30.6072 20.0808 31.5937C20.078 32.5295 19.5241 33.0764 18.5849 33.0764C18.284 33.0764 17.9837 33.0764 17.6827 33.0764C17.4439 33.0764 17.3246 32.9524 17.3246 32.7043C17.3246 29.5934 17.3232 26.4819 17.326 23.371C17.326 22.5621 17.4709 21.781 17.8499 21.0585C18.4052 20.0009 19.29 19.3334 20.4187 19.0025C21.5349 18.675 22.6733 18.6158 23.8188 18.8659C25.3871 19.2087 26.483 20.1347 27.0126 21.6354C27.7615 23.7563 27.6877 25.8632 26.529 27.8307C25.3098 29.9007 23.074 30.0825 21.436 29.4325C20.9594 29.2437 20.6939 28.995 20.0822 28.3365L20.0815 28.3372ZM24.6667 24.3304C24.6639 23.6357 24.5984 22.9815 24.3183 22.3726C23.9393 21.5462 23.2983 21.092 22.3751 21.0794C21.4785 21.0676 20.781 21.4557 20.441 22.2778C19.9275 23.5194 19.9052 24.8132 20.3999 26.0673C20.7197 26.879 21.3607 27.3451 22.2637 27.3904C23.1659 27.4357 23.8153 27.042 24.2424 26.2582C24.5754 25.6465 24.6597 24.9804 24.6667 24.3304Z" fill="white"/>
<path d="M62.6771 4.93064C62.6771 4.50146 62.6771 4.07227 62.6771 3.64379C62.6771 3.18325 62.6757 2.72271 62.6771 2.26148C62.6813 1.15577 63.1537 0.557286 64.2357 0.300193C64.4537 0.248636 64.6802 0.222856 64.9038 0.201955C65.0703 0.186627 65.239 0.199167 65.4403 0.199167C65.4459 0.330152 65.4549 0.438146 65.4549 0.546835C65.4556 3.7058 65.4556 6.86475 65.4549 10.0237C65.4549 12.2553 64.1305 13.917 61.9511 14.3776C60.6364 14.6556 59.3342 14.572 58.0606 14.1247C56.7507 13.6641 55.9788 12.6908 55.6004 11.4137C55.0187 9.4531 55.142 7.51411 56.0881 5.68868C57.2364 3.47309 59.677 3.16305 61.1729 3.77059C61.7734 4.01445 62.2382 4.4283 62.6757 4.93064H62.6771ZM58.11 9.0915C58.1233 9.75269 58.1957 10.402 58.464 11.0166C58.8033 11.7941 59.3844 12.2344 60.2392 12.279C61.0433 12.3208 61.7546 12.0895 62.1713 11.3663C63.0129 9.90736 62.9725 8.39756 62.2131 6.93094C61.8034 6.14016 61.0502 5.84753 60.1675 5.91651C59.3307 5.982 58.7949 6.44742 58.4633 7.1957C58.1943 7.80186 58.1114 8.43727 58.11 9.0915Z" fill="white"/>
<path d="M26.4616 9.76634H18.9056C18.831 11.157 19.8148 12.2307 21.1978 12.2794C21.5873 12.2934 21.9956 12.269 22.3676 12.1638C22.6589 12.0809 22.9403 11.8816 23.164 11.6684C23.3312 11.5096 23.474 11.4399 23.6963 11.4434C24.439 11.4545 25.1817 11.4475 25.9244 11.4482C26.0261 11.4482 26.1272 11.4482 26.316 11.4482C26.1634 11.7708 26.0645 12.053 25.9084 12.2983C25.1037 13.5635 23.9478 14.2916 22.4631 14.4985C21.2563 14.6671 20.0831 14.5717 18.9578 14.0686C17.3909 13.3677 16.4622 12.1777 16.2218 10.4742C16.0692 9.39708 16.0762 8.32064 16.3249 7.25255C16.8398 5.04532 18.6861 3.55642 20.9595 3.51322C21.6779 3.49928 22.3878 3.5397 23.0797 3.74941C24.8981 4.30052 25.9133 5.57692 26.325 7.38005C26.5013 8.15342 26.486 8.94281 26.4623 9.76704L26.4616 9.76634ZM18.9871 7.93883H23.5848C23.6649 6.81292 22.7076 5.85353 21.5016 5.77619C19.9249 5.67516 19.109 6.68751 18.9878 7.93883H18.9871Z" fill="white"/>
<path d="M76.9322 8.95953C76.9176 10.5989 76.4612 12.0732 75.2865 13.2674C74.695 13.8687 73.9592 14.2122 73.1427 14.3877C72.108 14.61 71.072 14.6065 70.0367 14.3877C68.4621 14.0547 67.3842 13.0883 66.8011 11.6378C65.8424 9.25425 66.0493 6.98083 67.7047 4.93315C68.2816 4.219 69.0689 3.81629 69.9475 3.60867C71.0518 3.34809 72.1659 3.346 73.2695 3.61772C75.067 4.06015 76.0843 5.31007 76.6207 6.99197C76.8207 7.61972 76.8778 8.29276 77.0005 8.9456C76.9775 8.95047 76.9545 8.95535 76.9315 8.95953H76.9322ZM69.1177 9.01527C69.1045 9.63884 69.1908 10.2847 69.4549 10.902C70.1941 12.6292 72.4655 12.5491 73.2981 11.5374C73.7398 11.0009 73.9418 10.3795 74.0122 9.70294C74.109 8.7742 74.0742 7.86079 73.6603 7.00103C73.2737 6.1984 72.6201 5.78733 71.7353 5.74831C70.8351 5.7086 70.0896 6.00053 69.6061 6.80455C69.2041 7.47271 69.1093 8.21264 69.1177 9.01527Z" fill="white"/>
<path d="M54.6714 29.7796C53.5998 29.7691 52.5659 29.6012 51.6546 29.0034C50.4715 28.228 49.8215 27.0791 49.5379 25.7281C49.1575 23.9173 49.3812 22.1978 50.4444 20.6323C51.1745 19.5572 52.1966 18.9601 53.4633 18.7532C54.3711 18.6048 55.2776 18.6138 56.1812 18.7964C57.6736 19.0981 58.7438 19.9655 59.3708 21.3234C60.4027 23.5578 60.3128 25.7553 58.9472 27.8399C58.1516 29.0543 56.942 29.5782 55.543 29.7294C55.2539 29.7608 54.9619 29.7636 54.6714 29.7796ZM57.1657 24.2566C57.1559 23.5063 57.0661 22.8074 56.7372 22.1497C55.9583 20.5911 53.751 20.7138 52.9665 21.6885C52.5227 22.2403 52.322 22.8694 52.2552 23.5536C52.1597 24.5311 52.2029 25.494 52.7031 26.3733C53.4842 27.7472 55.5583 27.8831 56.5122 26.629C57.0535 25.9176 57.1476 25.0816 57.1664 24.2559L57.1657 24.2566Z" fill="white"/>
<path d="M45.5604 7.12074C45.5903 5.5113 46.409 4.19379 48.0114 3.74928C49.6648 3.29013 51.3021 3.37026 52.8962 4.04817C53.8396 4.44949 54.3454 5.17896 54.4165 6.17598C54.4785 7.04619 54.4652 7.92267 54.468 8.79637C54.4701 9.52933 54.4764 10.2644 54.4283 10.9945C54.3245 12.5671 53.464 13.5898 52.0072 14.104C50.5845 14.6064 49.1074 14.6649 47.6352 14.4092C45.9791 14.1215 45.0929 12.8869 45.2009 11.145C45.2935 9.65404 46.0773 8.64378 47.5725 8.2564C48.4685 8.02439 49.4028 7.94009 50.3169 7.77357C50.6291 7.71714 50.9433 7.64119 51.2373 7.52414C51.5717 7.39107 51.7382 7.11725 51.7215 6.74172C51.7048 6.36409 51.5717 6.0443 51.2087 5.90286C50.4939 5.62417 49.7568 5.5963 49.0294 5.8513C48.5584 6.01643 48.3584 6.42262 48.2295 6.87549C48.2037 6.96607 48.1187 7.10889 48.0588 7.10959C47.2339 7.12492 46.4076 7.12004 45.5597 7.12004L45.5604 7.12074ZM51.7125 9.2144C51.2394 9.34121 50.7914 9.46662 50.3406 9.58019C49.8222 9.71117 49.2872 9.7913 48.7855 9.96687C48.1111 10.2031 47.8359 10.8113 47.9822 11.5728C48.093 12.1483 48.5653 12.5002 49.2474 12.5148C49.3129 12.5162 49.3798 12.5211 49.4446 12.5148C50.2918 12.4249 51.0617 12.179 51.4672 11.3464C51.8003 10.6636 51.7187 9.92297 51.7132 9.2151L51.7125 9.2144Z" fill="white"/>
<path d="M28.5248 22.4022C28.5262 21.0903 29.1665 19.6195 30.7564 19.1081C32.5219 18.5396 34.2777 18.6211 35.9819 19.3903C36.82 19.7686 37.2506 20.4535 37.3705 21.3411C37.4192 21.7027 37.4248 22.072 37.4248 22.4378C37.4248 23.6975 37.4555 24.9592 37.3969 26.2168C37.3189 27.8904 36.3762 28.9403 34.8183 29.4427C33.4611 29.8802 32.0558 29.9513 30.6624 29.706C28.6328 29.3486 27.8643 27.7831 28.2607 25.796C28.5241 24.4757 29.4605 23.7887 30.6944 23.4954C31.5054 23.3024 32.3422 23.2223 33.1657 23.0795C33.4792 23.0251 33.7956 22.9631 34.0958 22.86C34.4999 22.722 34.6992 22.4287 34.6985 22.0636C34.6971 21.617 34.4958 21.2903 34.084 21.146C33.4374 20.9196 32.7735 20.8952 32.1143 21.084C31.6016 21.231 31.3277 21.6226 31.2253 22.1215C31.1731 22.3751 31.0553 22.4252 30.8226 22.4204C30.1552 22.4064 29.4877 22.4162 28.8195 22.4148C28.7276 22.4148 28.6356 22.4071 28.5241 22.4022H28.5248ZM34.6727 24.5384C33.9391 24.7014 33.2368 24.8498 32.5394 25.0164C32.2307 25.0902 31.9165 25.1717 31.6308 25.3055C31.0922 25.557 30.8951 26.0183 30.9216 26.5986C30.9438 27.0794 31.1257 27.4493 31.5786 27.6584C32.416 28.0443 33.859 27.6026 34.3383 26.8132C34.7828 26.0824 34.6595 25.2762 34.6713 24.5384H34.6727Z" fill="white"/>
<path d="M44.3694 10.3854C44.1221 11.9844 43.3996 13.2295 42.0005 13.9478C40.3026 14.8187 38.5197 14.7672 36.7855 14.0446C35.514 13.5151 34.8256 12.4303 34.4773 11.1442C34.053 9.57932 34.0885 8.00402 34.6807 6.48934C35.4144 4.61375 36.8831 3.69546 38.8478 3.53103C39.7139 3.45857 40.5729 3.53382 41.4195 3.75817C43.1118 4.20616 44.0426 5.31605 44.3102 7.01955C44.3332 7.16586 44.352 7.31356 44.3757 7.48217C44.2802 7.49332 44.2085 7.50795 44.1367 7.50795C43.3187 7.50934 42.5001 7.50307 41.6821 7.51213C41.4863 7.51422 41.4083 7.45639 41.3616 7.25922C41.1617 6.41757 40.6579 5.95425 39.872 5.85322C38.9098 5.72921 38.1358 6.06991 37.7136 6.80008C37.4488 7.25783 37.3276 7.75738 37.283 8.27644C37.2063 9.17034 37.1861 10.0635 37.515 10.9205C37.9714 12.1084 39.3042 12.6226 40.4545 12.0562C40.961 11.8068 41.1867 11.3483 41.3156 10.8292C41.425 10.3868 41.4229 10.3861 41.8897 10.3861C42.6046 10.3861 43.3194 10.3861 44.0336 10.3861C44.1255 10.3861 44.2168 10.3861 44.3694 10.3861V10.3854Z" fill="white"/>
<path d="M33.7757 6.2925C33.4559 6.2925 33.1382 6.28344 32.8219 6.29459C32.0137 6.32315 31.2912 6.54332 30.8558 7.293C30.5485 7.82181 30.5074 8.41891 30.5046 9.01322C30.4983 10.6589 30.4962 12.3039 30.5088 13.9495C30.5109 14.2247 30.4558 14.3272 30.1569 14.3174C29.4337 14.2944 28.7091 14.3042 27.9852 14.3139C27.7867 14.3167 27.7316 14.2533 27.7323 14.0561C27.7393 12.2042 27.6801 10.3495 27.7497 8.49973C27.8459 5.96155 29.2763 3.97518 32.2534 3.58641C32.6895 3.52928 33.1341 3.53624 33.5751 3.51395C33.7089 3.50698 33.8155 3.5237 33.8141 3.70346C33.8085 4.54023 33.8099 5.377 33.8071 6.21377C33.8071 6.23885 33.7869 6.26393 33.775 6.2925H33.7757Z" fill="white"/>
</svg>
