<svg width="52" height="45" viewBox="0 0 52 45" fill="none" xmlns="http://www.w3.org/2000/svg">
<path d="M50.9583 27.0696L24.4136 0.623735C23.58 -0.206748 22.2218 -0.206748 21.3878 0.623735L19.8642 2.14205L18.3402 0.623735C17.5054 -0.209074 16.146 -0.206748 15.3132 0.623735L0.966365 14.9171C0.134716 15.7476 0.134716 17.0989 0.967529 17.9305L27.5122 44.3764C27.929 44.7916 28.4778 45 29.025 45C29.5726 45 30.1209 44.792 30.5378 44.3764L32.0622 42.8576L33.5866 44.3764C34.0033 44.7916 34.5521 45 35.0993 45C35.6469 45 36.1952 44.792 36.6121 44.3764L50.9569 30.085C51.7924 29.2541 51.7924 27.9009 50.9577 27.0704L50.9583 27.0696ZM29.0253 42.8684L2.48062 16.4226L16.8254 2.12919L43.3701 28.576L29.0253 42.8684ZM35.0999 42.8684L33.5756 41.3497L44.8833 30.0841C45.7181 29.2536 45.7181 27.9004 44.8833 27.0695L21.3757 3.6484L22.8997 2.13008L49.4454 28.5769L35.0999 42.8684Z" fill="white"/>
<path d="M37.7581 28.5551C37.7581 27.9227 38.0066 27.3289 38.4585 26.8828C38.6598 26.6835 38.7732 26.4136 38.7732 26.1313C38.7732 25.8498 38.6598 25.5791 38.4585 25.3798L20.093 7.19698C19.6902 6.79827 18.9771 6.79827 18.5746 7.19698C17.6433 8.11971 16.1257 8.11778 15.1948 7.19698C14.792 6.79827 14.0789 6.79827 13.6764 7.19698L7.55523 13.2577C7.13573 13.673 7.13573 14.3458 7.55523 14.7608C8.48654 15.6835 8.48654 17.1839 7.55523 18.1059C7.13573 18.5212 7.13573 19.194 7.55523 19.609L25.9207 37.7908C26.3235 38.1895 27.0366 38.1895 27.4391 37.7908C28.3431 36.897 29.916 36.8958 30.8181 37.7908C31.0195 37.9901 31.2921 38.1023 31.5773 38.1023C31.8624 38.1023 32.1351 37.9901 32.3364 37.7908L38.4587 31.73C38.6601 31.5307 38.7734 31.2608 38.7734 30.9785C38.7734 30.6963 38.6601 30.4263 38.4587 30.227C38.0077 29.7797 37.758 29.1859 37.758 28.5547L37.7581 28.5551ZM31.487 35.625C30.0816 34.7759 28.1773 34.7759 26.7699 35.625L9.74263 18.7679C10.6194 17.3404 10.6194 15.5289 9.74146 14.1003L14.5266 9.36328C15.9705 10.2313 17.8004 10.2313 19.2424 9.36328L36.2697 26.2204C35.8409 26.916 35.6103 27.7184 35.6103 28.5551C35.6103 29.3919 35.8409 30.1931 36.2709 30.8899L31.487 35.625Z" fill="white"/>
<path d="M19.7531 19.363C17.9601 21.0929 17.9601 23.9069 19.7531 25.6368C20.6498 26.5021 21.8282 26.934 23.0073 26.934C24.1856 26.934 25.3641 26.5025 26.2607 25.6368C28.0537 23.908 28.0537 21.0929 26.2607 19.363C24.4678 17.6319 21.5462 17.6339 19.7531 19.363ZM24.7209 24.1517C23.7764 25.0612 22.2374 25.0631 21.2933 24.1517C20.3499 23.241 20.3499 21.7583 21.2933 20.8476C21.7653 20.3924 22.3866 20.1647 23.0076 20.1647C23.6278 20.1647 24.2488 20.3924 24.7208 20.8476C25.6649 21.759 25.6649 23.241 24.7208 24.1517H24.7209Z" fill="white"/>
</svg>
