<svg width="32" height="32" viewBox="0 0 32 32" fill="none" xmlns="http://www.w3.org/2000/svg">
<path d="M25.6001 0H6.39995C4.70307 0.00187496 3.07634 0.676612 1.87661 1.87661C0.676599 3.07634 0.00185144 4.70307 0 6.39995V25.6001C0.00187496 27.2969 0.676612 28.9237 1.87661 30.1234C3.07634 31.3234 4.70307 31.9982 6.39995 32H25.6001C27.2969 31.9984 28.9237 31.3234 30.1237 30.1237C31.3234 28.9237 31.9984 27.2969 32 25.6001V6.39995C31.9984 4.70307 31.3234 3.07634 30.1237 1.87633C28.9237 0.676598 27.2969 0.00157715 25.6001 0V0ZM28.8002 25.5999C28.7991 26.4482 28.4616 27.2617 27.8618 27.8617C27.2618 28.4614 26.4484 28.7989 25.6001 28.8H6.39995C5.55164 28.7992 4.73818 28.4617 4.13817 27.8617C3.53817 27.2617 3.20066 26.4482 3.19984 25.5999V6.39981C3.20064 5.55151 3.53814 4.73804 4.13817 4.13804C4.7382 3.53803 5.55164 3.20052 6.39995 3.1997H25.6001C26.4484 3.20077 27.2618 3.53827 27.8618 4.13804C28.4616 4.73804 28.7991 5.55151 28.8002 6.39981V25.5999Z" fill="white"/>
<path d="M15.9996 8.8614C14.1064 8.8614 12.2908 9.61383 10.9524 10.9526C9.61385 12.2913 8.86203 14.1069 8.8623 16.0001C8.8623 17.8933 9.61447 19.7088 10.9532 21.0473C12.2919 22.3857 14.1075 23.1379 16.0007 23.1376C17.8939 23.1376 19.7095 22.3855 21.0479 21.047C22.3867 19.7083 23.1385 17.8927 23.1385 15.9995C23.1364 14.1068 22.3837 12.2924 21.0453 10.9541C19.7068 9.61589 17.8923 8.86325 15.9996 8.86133V8.8614ZM15.9996 19.9378C14.9553 19.9375 13.9537 19.5224 13.2152 18.7839C12.4767 18.0452 12.0621 17.0433 12.0621 15.999C12.0624 14.9546 12.4773 13.9528 13.2161 13.2146C13.9546 12.4761 14.9564 12.0612 16.0007 12.0612C17.045 12.0615 18.0469 12.4764 18.7853 13.2149C19.5238 13.9534 19.9387 14.9552 19.9387 15.9995C19.9376 17.0439 19.5222 18.0449 18.7837 18.7834C18.0452 19.5216 17.044 19.9368 15.9995 19.9379L15.9996 19.9378Z" fill="white"/>
<circle cx="23.1945" cy="6.93184" r="1.9543" fill="white"/>
</svg>
