<svg width="32" height="32" viewBox="0 0 32 32" fill="none" xmlns="http://www.w3.org/2000/svg">
<path d="M0 32C0.716954 29.3762 1.41091 26.8183 2.12087 24.265C2.20986 23.9445 2.18886 23.6915 2.02437 23.391C-1.21392 17.4674 -0.221986 9.93391 4.42172 5.03122C6.73457 2.58988 9.53089 1.02248 12.8162 0.326024C19.0888 -1.00339 25.7779 1.81793 29.2411 7.23758C31.1535 10.2304 31.9925 13.5007 31.7445 17.032C31.2555 23.994 26.2178 29.8351 19.3948 31.356C15.6505 32.1905 12.0622 31.687 8.63995 29.9531C8.49096 29.8776 8.27597 29.8526 8.11498 29.8941C5.53015 30.5601 2.94931 31.2405 0.367477 31.9175C0.263983 31.9445 0.15849 31.9645 0.000499693 32H0ZM3.80126 28.2357C3.90225 28.2142 3.95375 28.2052 4.00424 28.1917C5.42915 27.8193 6.85656 27.4563 8.27597 27.0658C8.62095 26.9708 8.88943 27.0018 9.20491 27.1833C13.0617 29.4017 17.0829 29.7286 21.1671 27.9628C26.8498 25.5059 29.9161 19.7103 28.9092 13.5677C27.9322 7.60756 22.6396 2.93036 16.6029 2.70287C13.2692 2.57688 10.2693 3.52432 7.68451 5.64468C4.6992 8.09353 3.0673 11.2793 2.82682 15.1376C2.64783 18.0059 3.37678 20.6597 4.93818 23.0756C5.07568 23.2886 5.10717 23.473 5.03718 23.722C4.6192 25.2054 4.22073 26.6938 3.80076 28.2357H3.80126Z" fill="white"/>
<path d="M10.8288 8.57027C11.5337 8.38628 11.8567 8.83026 12.0977 9.45722C12.4517 10.3777 12.8411 11.2851 13.2286 12.192C13.3591 12.4975 13.3531 12.7725 13.1556 13.038C12.8381 13.465 12.5292 13.8994 12.1937 14.3124C11.9822 14.5724 11.9527 14.8074 12.1252 15.0989C13.4171 17.2872 15.2285 18.8666 17.5903 19.8076C17.8978 19.93 18.1503 19.8806 18.3603 19.6191C18.7563 19.1261 19.1587 18.6386 19.5507 18.1422C19.8242 17.7952 19.9877 17.7032 20.3731 17.8797C21.5006 18.3951 22.618 18.9321 23.7244 19.4911C23.8584 19.5586 23.9744 19.8131 23.9714 19.9785C23.9419 21.6579 23.449 22.4709 21.6431 23.2278C20.6216 23.6563 19.5647 23.5493 18.5143 23.2558C14.712 22.1939 11.9097 19.7981 9.66484 16.6438C8.95888 15.6523 8.32142 14.6289 8.05394 13.424C7.67246 11.7061 8.09694 10.2187 9.35986 8.97975C9.75983 8.58727 10.2443 8.50378 10.8293 8.57077L10.8288 8.57027Z" fill="white"/>
</svg>
